<svg width="26" height="26" viewBox="0 0 26 26" fill="none" xmlns="http://www.w3.org/2000/svg">
<g clip-path="url(#clip0_107_165)">
<path fill-rule="evenodd" clip-rule="evenodd" d="M0 6.09375C0 5.77052 0.128404 5.46052 0.356964 5.23196C0.585524 5.0034 0.895517 4.875 1.21875 4.875H24.7812C25.1045 4.875 25.4145 5.0034 25.643 5.23196C25.8716 5.46052 26 5.77052 26 6.09375C26 6.41698 25.8716 6.72698 25.643 6.95554C25.4145 7.1841 25.1045 7.3125 24.7812 7.3125H1.21875C0.895517 7.3125 0.585524 7.1841 0.356964 6.95554C0.128404 6.72698 0 6.41698 0 6.09375ZM0 13C0 12.6768 0.128404 12.3668 0.356964 12.1382C0.585524 11.9097 0.895517 11.7812 1.21875 11.7812H24.7812C25.1045 11.7812 25.4145 11.9097 25.643 12.1382C25.8716 12.3668 26 12.6768 26 13C26 13.3232 25.8716 13.6332 25.643 13.8618C25.4145 14.0903 25.1045 14.2188 24.7812 14.2188H1.21875C0.895517 14.2188 0.585524 14.0903 0.356964 13.8618C0.128404 13.6332 0 13.3232 0 13ZM1.21875 18.6875C0.895517 18.6875 0.585524 18.8159 0.356964 19.0445C0.128404 19.273 0 19.583 0 19.9062C0 20.2295 0.128404 20.5395 0.356964 20.768C0.585524 20.9966 0.895517 21.125 1.21875 21.125H24.7812C25.1045 21.125 25.4145 20.9966 25.643 20.768C25.8716 20.5395 26 20.2295 26 19.9062C26 19.583 25.8716 19.273 25.643 19.0445C25.4145 18.8159 25.1045 18.6875 24.7812 18.6875H1.21875Z" fill="black"/>
</g>
<defs>
<clipPath id="clip0_107_165">
<rect width="26" height="26" fill="white"/>
</clipPath>
</defs>
</svg>
